<?xml version="1.0" encoding="UTF-8" standalone="no"?>
<svg width="512" height="512" viewBox="0 0 512 512" xmlns="http://www.w3.org/2000/svg">
    <defs>
        <linearGradient id="grad1" x1="0%" y1="0%" x2="100%" y2="100%">
            <stop offset="0%" style="stop-color:#4CAF50;stop-opacity:1" />
            <stop offset="100%" style="stop-color:#2196F3;stop-opacity:1" />
        </linearGradient>
        <clipPath id="roundedCorners">
            <rect x="16" y="16" width="480" height="480" rx="120" ry="120"/>
        </clipPath>
    </defs>
    
    <!-- Main content group with clipping -->
    <g clip-path="url(#roundedCorners)">
        <!-- Network connections visualization -->
        <g transform="translate(256,256)">
            <!-- Orbital rings -->
            <circle cx="0" cy="0" r="180" fill="none" stroke="url(#grad1)" stroke-width="4" opacity="0.3" />
            <circle cx="0" cy="0" r="140" fill="none" stroke="url(#grad1)" stroke-width="3" opacity="0.4" />
            <circle cx="0" cy="0" r="100" fill="none" stroke="url(#grad1)" stroke-width="2" opacity="0.5" />
            
            <!-- Connection nodes -->
            <circle cx="120" cy="120" r="15" fill="#4CAF50" />
            <circle cx="-100" cy="100" r="12" fill="#2196F3" />
            <circle cx="80" cy="-140" r="10" fill="#FF9800" />
            <circle cx="-150" cy="-50" r="14" fill="#9C27B0" />
            
            <!-- Connection lines -->
            <line x1="0" y1="0" x2="120" y2="120" stroke="#4CAF50" stroke-width="2" opacity="0.6" />
            <line x1="0" y1="0" x2="-100" y2="100" stroke="#2196F3" stroke-width="2" opacity="0.6" />
            <line x1="0" y1="0" x2="80" y2="-140" stroke="#FF9800" stroke-width="2" opacity="0.6" />
            <line x1="0" y1="0" x2="-150" y2="-50" stroke="#9C27B0" stroke-width="2" opacity="0.6" />
            
            <!-- Central node -->
            <circle cx="0" cy="0" r="40" fill="url(#grad1)" />
            <circle cx="0" cy="0" r="30" fill="transparent" />
            <path d="M-15,-15 L15,15 M-15,15 L15,-15" stroke="url(#grad1)" stroke-width="6" stroke-linecap="round" />
        </g>
    </g>
</svg>
